<?xml version="1.0" encoding="UTF-8"?>
<!-- Generated by Pixelmator Pro 3.5.2 -->
<svg width="1671" height="374" viewBox="0 0 1671 374" xmlns="http://www.w3.org/2000/svg">
    <g id="tangoinetrnetwebbrowser-copy">
        <radialGradient id="radialGradient1" cx="126.663419" cy="117.278666" r="269.133948" fx="126.663419" fy="117.278666" gradientUnits="userSpaceOnUse">
            <stop offset="1e-05" stop-color="#d3e9ff" stop-opacity="1"/>
            <stop offset="0.155172" stop-color="#d3e9ff" stop-opacity="1"/>
            <stop offset="0.75" stop-color="#4074ae" stop-opacity="1"/>
            <stop offset="1" stop-color="#36486c" stop-opacity="1"/>
        </radialGradient>
        <path id="path3214" fill="url(#radialGradient1)" stroke="#39396c" stroke-width="8.97322" d="M 357.386536 186.99382 C 357.386536 283.094482 279.480072 361 183.39267 361 C 87.296432 361 9.39441 283.093597 9.39441 186.99382 C 9.39441 90.897583 87.296432 13 183.39267 13 C 279.480072 13 357.386536 90.897583 357.386536 186.99382 L 357.386536 186.99382 Z"/>
        <radialGradient id="radialGradient2" cx="156.283831" cy="55.95201" r="289.010891" fx="156.283831" fy="55.95201" gradientUnits="userSpaceOnUse">
            <stop offset="1e-05" stop-color="#ffffff" stop-opacity="1"/>
            <stop offset="1" stop-color="#ffffff" stop-opacity="0"/>
        </radialGradient>
        <path id="path4348" fill="url(#radialGradient2)" stroke="none" opacity="0.421594" d="M 281.989319 113.283844 C 281.998962 143.082367 263.515198 170.620865 233.502975 185.522537 C 203.490738 200.424194 166.511337 200.424194 136.499115 185.522537 C 106.486862 170.620865 88.003113 143.082367 88.012749 113.283844 C 88.003113 83.485321 106.486862 55.946777 136.499115 41.045135 C 166.511337 26.143463 203.490738 26.143463 233.502975 41.045135 C 263.515198 55.946777 281.998962 83.485321 281.989319 113.283844 Z"/>
        <g id="g4136">
            <g id="g4138">
                <g id="g4142">
                    <path id="path4144" fill="#000000" fill-opacity="0.71345" stroke="none" d="M 352.501434 160.941345 C 352.501434 163.257065 352.501434 160.941345 352.501434 160.941345 L 347.698151 166.381989 C 344.753937 162.912384 341.448303 159.994614 338.091492 156.947235 L 330.723022 158.031509 L 323.990997 150.421494 L 323.990997 159.839462 L 329.758636 164.203781 L 333.597595 168.551361 L 338.727966 162.749313 C 340.019379 165.168152 341.293152 167.587006 342.575714 170.005844 L 342.575714 177.25444 L 336.799225 183.779343 L 326.228271 191.035873 L 318.222412 199.024918 L 313.092072 193.205231 L 315.657288 186.680359 L 310.534851 180.878296 L 301.883759 162.387024 L 294.515259 154.054169 L 292.586548 156.223526 L 295.47876 166.743408 L 300.919403 172.906876 C 304.026703 181.877029 307.100494 190.450546 311.180969 199.024918 C 317.508423 199.024918 323.473541 198.353226 329.757751 197.56163 L 329.757751 202.640854 L 322.07019 221.497971 L 315.019958 229.469391 L 309.252228 241.813965 C 309.252228 248.580383 309.252228 255.346802 309.252228 262.112335 L 311.180969 270.10141 L 307.978485 273.717316 L 300.919403 278.072845 L 293.550934 284.236328 L 299.64563 291.123505 L 291.312775 298.388855 L 292.913605 303.08902 L 280.413879 317.241547 L 272.089844 317.241547 L 265.039551 321.597046 L 260.545654 321.597046 L 260.545654 315.794983 L 258.634552 304.173279 C 256.154907 296.890259 253.572983 289.659302 250.946991 282.428345 C 250.946991 277.090851 251.265228 271.805359 251.58432 266.468719 L 254.795654 259.220123 L 250.301758 250.50824 L 250.628754 238.542709 L 244.534058 231.655533 L 247.581421 221.6866 L 242.622955 216.060852 L 233.963089 216.060852 L 231.079681 212.798416 L 222.428619 218.243454 L 218.907867 214.244949 L 210.893265 221.135666 C 205.452621 214.967789 200.003159 208.804321 194.554596 202.640854 L 188.149597 187.404068 L 193.917267 178.709808 L 190.714767 175.085953 L 197.75621 158.393799 C 203.541519 151.197205 209.584229 144.293274 215.696564 137.363785 L 226.594589 134.462769 L 238.767258 133.01619 L 247.100113 135.194412 L 258.953674 147.151108 L 263.120544 142.442123 L 268.879395 141.719284 L 279.777435 145.34314 L 288.110291 145.34314 L 293.87796 140.263931 L 296.443115 136.640076 L 290.666626 133.01619 L 281.051208 132.293381 C 278.382904 128.591934 275.903229 124.701004 272.735107 121.412094 L 269.523773 122.858643 L 268.241211 132.293381 L 262.473541 125.768494 L 261.199738 118.503143 L 254.794769 113.441559 L 252.220795 113.441559 L 258.633698 120.69014 L 256.068512 127.215027 L 250.946106 128.661575 L 254.148605 122.136703 L 248.372116 119.244492 L 243.258514 113.442413 L 233.634262 115.611816 L 232.360504 118.504028 L 226.592819 122.136703 L 223.39032 130.116943 L 215.384521 134.102234 L 211.854965 130.116943 L 208.016022 130.116943 L 208.016022 117.05835 L 216.348862 112.70285 L 222.753891 112.70285 L 221.462479 107.632446 L 216.348862 102.553253 L 224.99202 100.73645 L 229.795334 95.304626 L 233.634262 88.770935 L 240.693359 88.770935 L 238.764618 83.700531 L 243.258514 80.7995 L 243.258514 86.601563 L 252.865143 88.770935 L 262.471741 80.7995 L 263.117035 77.166809 L 271.44104 71.369171 C 268.42807 71.743805 265.4151 72.01886 262.470886 72.820129 L 262.470886 66.287323 L 265.67337 59.034302 L 262.470886 59.034302 L 255.432983 65.559174 L 253.504257 69.187469 L 255.432983 74.271088 L 252.221649 82.965332 L 247.099228 80.064331 L 242.622955 74.993927 L 235.563873 80.064331 L 232.998718 68.46463 L 245.171387 60.48877 L 245.171387 56.13327 L 252.866928 51.058441 L 265.039551 48.153015 L 273.372437 51.058441 L 288.746735 53.959473 L 284.907776 58.307037 L 276.574951 58.307037 L 284.907776 67.010162 L 291.312775 59.761566 L 293.25824 56.572266 C 293.25824 56.572266 317.826599 78.592224 331.867188 102.679291 C 345.907806 126.774277 352.501434 155.173676 352.501434 160.941345 Z"/>
                </g>
            </g>
            <g id="g4146">
                <g id="g4150">
                    <path id="path4152" fill="#000000" fill-opacity="0.71345" stroke="none" d="M 193.822052 59.761566 L 193.176819 64.109131 L 197.670715 67.010162 L 205.349472 61.935333 L 201.510544 57.583344 L 196.380203 60.48877 L 193.823822 59.761566"/>
                </g>
            </g>
            <g id="g4154">
                <g id="g4158">
                    <path id="path4160" fill="#000000" fill-opacity="0.71345" stroke="none" d="M 200.87233 30.028442 L 184.206635 23.499176 L 164.992508 25.672943 L 141.27655 32.197815 L 136.791443 36.553345 L 151.529312 46.702972 L 151.529312 52.505005 L 145.761642 58.307037 L 153.457153 73.548248 L 158.570755 70.638428 L 164.992508 60.48877 C 174.8918 57.428192 183.767654 53.959473 193.176819 49.607513 L 200.87233 30.027557"/>
                </g>
            </g>
            <g id="g4162">
                <g id="g4166">
                    <path id="path4168" fill="#000000" fill-opacity="0.71345" stroke="none" d="M 218.175354 90.954407 L 215.610184 84.420685 L 211.116272 85.875214 L 212.407684 93.846619 L 218.175354 90.954407"/>
                </g>
            </g>
            <g id="g4170">
                <g id="g4174">
                    <path id="path4176" fill="#000000" fill-opacity="0.71345" stroke="none" d="M 220.731705 89.491119 L 219.449142 98.203003 L 226.499374 96.748535 L 231.621796 91.678131 L 227.136703 87.322632 C 225.630219 83.310883 223.899841 79.566284 222.014297 75.718506 L 218.175354 75.718506 L 218.175354 80.066071 L 220.731705 82.967102 L 220.731705 89.491974"/>
                </g>
            </g>
            <g id="g4178">
                <g id="g4182">
                    <path id="path4184" fill="#000000" fill-opacity="0.71345" stroke="none" d="M 125.901375 227.299149 L 120.771019 217.141571 L 111.159988 214.967789 L 106.034065 201.194305 L 93.220528 202.640854 L 82.330444 194.669418 L 70.790688 204.819031 L 70.790688 206.419861 C 67.299934 205.412292 63.008778 205.27478 59.900597 203.363678 L 57.335419 196.115067 L 57.335419 188.134827 L 49.647831 188.857666 C 50.289558 183.778442 50.926018 178.708038 51.572151 173.6297 L 47.082657 173.6297 L 42.601971 179.431763 L 38.112484 181.601135 L 31.703072 177.985214 L 31.061338 170.004959 L 32.343929 161.301895 L 41.959362 154.053284 L 49.64695 154.053284 L 50.925137 149.697784 L 60.536156 151.867157 L 67.586411 160.579041 L 68.869003 146.065109 L 81.045204 135.915482 L 85.530304 125.03421 L 94.500473 121.410339 L 99.626411 114.161743 L 111.157356 111.975616 L 116.929443 103.281342 C 111.161751 103.281342 105.394081 103.281342 99.626411 103.281342 L 110.520027 98.202118 L 118.203194 98.202118 L 129.101242 94.569458 L 130.38382 90.230713 L 126.536057 86.598022 L 122.050972 85.143524 L 123.333557 80.795959 L 120.13105 74.271088 L 112.439049 77.1633 L 113.721634 71.365631 L 104.751472 66.286438 L 97.70562 78.608978 L 98.342941 82.964478 L 91.297096 85.874298 L 86.807587 95.300232 L 84.887672 86.597137 L 72.711472 81.517914 L 70.787148 74.993042 L 86.807587 65.558289 L 93.857857 59.033417 L 94.499596 51.057587 L 90.656235 48.879395 L 85.530304 48.15213 L 82.327789 56.132416 C 82.327789 56.132416 76.969147 57.182251 75.591347 57.522522 C 57.995667 73.736877 22.442884 108.738739 14.1832 174.817093 C 14.510239 176.349121 20.170368 185.232941 20.170368 185.232941 L 33.625633 193.204346 L 47.080894 196.837036 L 52.852974 204.093567 L 61.818741 210.618454 L 66.944687 209.895615 L 70.78804 211.626007 L 70.78804 212.796661 L 65.665627 226.574539 L 61.81786 232.376587 L 63.100452 235.286438 L 59.897945 246.15007 L 71.433296 267.188904 L 82.964241 277.346497 L 88.094582 284.595093 L 87.449326 299.831848 L 91.297096 308.526123 L 87.449326 325.209442 C 87.449326 325.209442 87.147858 325.106323 87.638855 326.775879 C 88.134254 328.44632 108.169937 339.568237 109.44371 338.621521 C 110.713081 337.657166 111.79821 336.813538 111.79821 336.813538 L 110.520027 333.197632 L 115.642441 328.118408 L 117.566772 323.039185 L 125.899612 320.129364 L 132.304611 304.169739 L 130.384705 299.830994 L 134.860962 293.306091 L 144.476425 291.119965 L 149.60675 279.515839 L 148.324158 265.019531 L 156.011765 254.138245 L 157.294342 243.256989 C 146.77449 238.040237 136.341019 232.668365 125.899612 227.297363"/>
                </g>
            </g>
            <g id="g4186">
                <g id="g4190">
                    <path id="path4192" fill="#000000" fill-opacity="0.71345" stroke="none" d="M 111.80085 62.658173 L 118.205864 67.010162 L 123.336189 67.010162 L 123.336189 61.935333 L 116.931206 59.034302 L 111.80085 62.658173"/>
                </g>
            </g>
            <g id="g4194">
                <g id="g4198">
                    <path id="path4200" fill="#000000" fill-opacity="0.71345" stroke="none" d="M 95.143974 56.860535 L 91.937057 64.836334 L 98.346466 64.836334 L 101.553375 57.583344 C 104.316895 55.629059 107.067184 53.662445 109.881805 51.781281 L 116.291222 53.959473 C 120.561226 56.860535 124.831223 59.761566 129.104752 62.658173 L 135.5177 56.860535 L 128.463028 53.959473 L 125.256104 47.430206 L 113.083435 45.979248 L 112.441704 42.350983 L 106.674034 43.80545 L 104.114151 48.881134 L 100.907242 42.351837 L 99.629051 45.252869 L 100.270782 52.50589 L 95.143974 56.860535"/>
                </g>
            </g>
            <g id="g4202">
                <g id="g4204" opacity="0.75"/>
                <g id="g4208"/>
            </g>
            <g id="g4212">
                <g id="g4214" opacity="0.75"/>
                <g id="g4218"/>
            </g>
            <g id="g4222">
                <g id="g4226">
                    <path id="path4228" fill="#000000" fill-opacity="0.71345" stroke="none" d="M 118.205864 38.722687 L 121.412766 35.82608 L 127.822166 34.375122 C 132.212067 32.240143 136.619583 30.802399 141.277451 29.295929 L 138.721069 24.943939 L 130.448166 26.132202 L 126.539581 30.027557 L 120.095795 30.961945 L 114.366905 33.652283 L 111.582253 34.999237 L 109.881805 37.276184 L 118.205864 38.722687"/>
                </g>
            </g>
            <g id="g4230">
                <g id="g4234">
                    <path id="path4236" fill="#000000" fill-opacity="0.71345" stroke="none" d="M 129.103882 107.628906 L 132.95163 101.826874 L 127.179565 97.479279 L 129.103882 107.628906"/>
                </g>
            </g>
        </g>
        <g id="g3216">
            <g id="g3218">
                <g id="g3222">
                    <radialGradient id="radialGradient3" cx="132.504332" cy="125.197687" r="371.915407" fx="132.504332" fy="125.197687" gradientUnits="userSpaceOnUse">
                        <stop offset="1e-05" stop-color="#ffffff" stop-opacity="1"/>
                        <stop offset="0.37931" stop-color="#fefefe" stop-opacity="1"/>
                        <stop offset="1" stop-color="#1d1d1d" stop-opacity="1"/>
                    </radialGradient>
                    <path id="path3224" fill="url(#radialGradient3)" stroke="none" d="M 350.688599 159.128464 C 350.688599 161.444183 350.688599 159.128464 350.688599 159.128464 L 345.885284 164.569122 C 342.94104 161.099503 339.635406 158.181747 336.278625 155.134384 L 328.910156 156.218643 L 322.178101 148.608612 L 322.178101 158.026581 L 327.945801 162.390915 L 331.784729 166.738495 L 336.91507 160.936432 C 338.206482 163.35527 339.480286 165.774124 340.762848 168.192978 L 340.762848 175.441589 L 334.986389 181.966461 L 324.415405 189.223007 L 316.409546 197.212051 L 311.279205 191.39238 L 313.844391 184.867477 L 308.721985 179.065445 L 300.070892 160.574142 L 292.702393 152.241287 L 290.773651 154.410675 L 293.665894 164.930542 L 299.106537 171.093994 C 302.213837 180.064178 305.287598 188.637665 309.368103 197.212051 C 315.695557 197.212051 321.660706 196.540344 327.944885 195.748749 L 327.944885 200.827988 L 320.257294 219.685104 L 313.207092 227.656525 L 307.439392 240.001083 C 307.439392 246.767517 307.439392 253.533936 307.439392 260.2995 L 309.368103 268.288544 L 306.165619 271.904449 L 299.106537 276.259979 L 291.738068 282.423462 L 297.832764 289.310608 L 289.499939 296.575958 L 291.100739 301.276123 L 278.601013 315.42868 L 270.276978 315.42868 L 263.226715 319.78418 L 258.732788 319.78418 L 258.732788 313.982117 L 256.821686 302.360413 C 254.342041 295.077393 251.760132 287.846436 249.134125 280.615479 C 249.134125 275.277985 249.452347 269.992493 249.771454 264.655853 L 252.982788 257.407257 L 248.488876 248.695343 L 248.815887 236.729843 L 242.721207 229.842651 L 245.768539 219.873734 L 240.810089 214.248001 L 232.150208 214.248001 L 229.266815 210.985535 L 220.615738 216.430573 L 217.095016 212.432083 L 209.080383 219.3228 C 203.639755 213.154922 198.190308 206.991455 192.741745 200.827988 L 186.336716 185.591202 L 192.104416 176.896942 L 188.901901 173.273071 L 195.943344 156.580933 C 201.728653 149.384338 207.771362 142.480408 213.883698 135.550919 L 224.781708 132.649887 L 236.954407 131.203339 L 245.287247 133.381531 L 257.140839 145.338242 L 261.307678 140.629272 L 267.066528 139.906433 L 277.964569 143.530289 L 286.297424 143.530289 L 292.065063 138.451065 L 294.63028 134.827194 L 288.85376 131.203339 L 279.238342 130.480515 C 276.570038 126.779083 274.090393 122.888138 270.922241 119.599258 L 267.710907 121.045776 L 266.428345 130.480515 L 260.660645 123.955627 L 259.386871 116.690277 L 252.981903 111.628662 L 250.407898 111.628662 L 256.820801 118.877274 L 254.25563 125.402176 L 249.133224 126.848724 L 252.335739 120.323822 L 246.559235 117.43161 L 241.445648 111.629547 L 231.821411 113.79892 L 230.547638 116.691162 L 224.779968 120.323822 L 221.577469 128.304077 L 213.57164 132.289352 L 210.042099 128.304077 L 206.203156 128.304077 L 206.203156 115.245483 L 214.536011 110.889984 L 220.94101 110.889984 L 219.649612 105.81958 L 214.536011 100.740356 L 223.179153 98.923584 L 227.982452 93.491791 L 231.821411 86.958069 L 238.880493 86.958069 L 236.951752 81.887665 L 241.445648 78.986633 L 241.445648 84.788666 L 251.052277 86.958069 L 260.658905 78.986633 L 261.304169 75.353943 L 269.628174 69.556305 C 266.615204 69.930939 263.602234 70.205994 260.658051 71.007233 L 260.658051 64.474426 L 263.860504 57.221436 L 260.658051 57.221436 L 253.620087 63.746307 L 251.691391 67.374573 L 253.620087 72.458221 L 250.408783 81.152466 L 245.286377 78.251465 L 240.810089 73.181061 L 233.751007 78.251465 L 231.185837 66.651764 L 243.358521 58.675903 L 243.358521 54.320404 L 251.054062 49.245575 L 263.226715 46.340179 L 271.55957 49.245575 L 286.933838 52.146637 L 283.09491 56.494202 L 274.762085 56.494202 L 283.09491 65.197266 L 289.499939 57.948669 L 291.445404 54.759399 C 291.445404 54.759399 316.013763 76.779327 330.054321 100.866425 C 344.09491 124.961426 350.688599 153.360809 350.688599 159.128464 Z"/>
                </g>
            </g>
            <g id="g3226">
                <g id="g3230">
                    <radialGradient id="radialGradient4" cx="132.504332" cy="125.197687" r="371.915407" fx="132.504332" fy="125.197687" gradientUnits="userSpaceOnUse">
                        <stop offset="1e-05" stop-color="#ffffff" stop-opacity="1"/>
                        <stop offset="0.37931" stop-color="#fefefe" stop-opacity="1"/>
                        <stop offset="1" stop-color="#1d1d1d" stop-opacity="1"/>
                    </radialGradient>
                    <path id="path3232" fill="url(#radialGradient4)" stroke="none" d="M 192.009201 57.948669 L 191.363937 62.296234 L 195.857849 65.197266 L 203.536621 60.122437 L 199.697662 55.770477 L 194.567322 58.675903 L 192.010956 57.948669"/>
                </g>
            </g>
            <g id="g3234">
                <g id="g3238">
                    <radialGradient id="radialGradient5" cx="132.504332" cy="125.197687" r="371.915407" fx="132.504332" fy="125.197687" gradientUnits="userSpaceOnUse">
                        <stop offset="1e-05" stop-color="#ffffff" stop-opacity="1"/>
                        <stop offset="0.37931" stop-color="#fefefe" stop-opacity="1"/>
                        <stop offset="1" stop-color="#1d1d1d" stop-opacity="1"/>
                    </radialGradient>
                    <path id="path3240" fill="url(#radialGradient5)" stroke="none" d="M 199.059448 28.215546 L 182.393768 21.686279 L 163.179657 23.860077 L 139.463669 30.384949 L 134.978592 34.740479 L 149.716431 44.890076 L 149.716431 50.692139 L 143.948776 56.494202 L 151.644287 71.735382 L 156.757889 68.825531 L 163.179657 58.675903 C 173.078918 55.615326 181.954788 52.146637 191.363937 47.794647 L 199.059448 28.214691"/>
                </g>
            </g>
            <g id="g3242">
                <g id="g3246">
                    <radialGradient id="radialGradient6" cx="132.504332" cy="125.197687" r="371.915407" fx="132.504332" fy="125.197687" gradientUnits="userSpaceOnUse">
                        <stop offset="1e-05" stop-color="#ffffff" stop-opacity="1"/>
                        <stop offset="0.37931" stop-color="#fefefe" stop-opacity="1"/>
                        <stop offset="1" stop-color="#1d1d1d" stop-opacity="1"/>
                    </radialGradient>
                    <path id="path3248" fill="url(#radialGradient6)" stroke="none" d="M 216.362488 89.141541 L 213.797318 82.607819 L 209.303406 84.062317 L 210.594803 92.033752 L 216.362488 89.141541"/>
                </g>
            </g>
            <g id="g3250">
                <g id="g3254">
                    <radialGradient id="radialGradient7" cx="132.504332" cy="125.197687" r="371.915407" fx="132.504332" fy="125.197687" gradientUnits="userSpaceOnUse">
                        <stop offset="1e-05" stop-color="#ffffff" stop-opacity="1"/>
                        <stop offset="0.37931" stop-color="#fefefe" stop-opacity="1"/>
                        <stop offset="1" stop-color="#1d1d1d" stop-opacity="1"/>
                    </radialGradient>
                    <path id="path3256" fill="url(#radialGradient7)" stroke="none" d="M 218.918839 87.678223 L 217.636261 96.390137 L 224.686523 94.935669 L 229.808929 89.865265 L 225.323853 85.509766 C 223.817352 81.498016 222.086975 77.753387 220.201431 73.90564 L 216.362488 73.90564 L 216.362488 78.253204 L 218.918839 81.154236 L 218.918839 87.679138"/>
                </g>
            </g>
            <g id="g3258">
                <g id="g3262">
                    <radialGradient id="radialGradient8" cx="132.504332" cy="125.197687" r="371.915407" fx="132.504332" fy="125.197687" gradientUnits="userSpaceOnUse">
                        <stop offset="1e-05" stop-color="#ffffff" stop-opacity="1"/>
                        <stop offset="0.37931" stop-color="#fefefe" stop-opacity="1"/>
                        <stop offset="1" stop-color="#1d1d1d" stop-opacity="1"/>
                    </radialGradient>
                    <path id="path3264" fill="url(#radialGradient8)" stroke="none" d="M 124.088501 225.486267 L 118.95816 215.328705 L 109.34713 213.154922 L 104.221191 199.381424 L 91.407654 200.827988 L 80.517578 192.856552 L 68.977814 203.00618 L 68.977814 204.606979 C 65.487068 203.599426 61.195908 203.461914 58.087727 201.550812 L 55.522549 194.302216 L 55.522549 186.321945 L 47.834961 187.0448 C 48.476696 181.965576 49.113148 176.895187 49.759281 171.816818 L 45.269798 171.816818 L 40.789108 177.618896 L 36.299614 179.788269 L 29.890205 176.172333 L 29.248472 168.192093 L 30.531057 159.489014 L 40.146492 152.240417 L 47.83408 152.240417 L 49.112267 147.884903 L 58.723286 150.054291 L 65.773552 158.766174 L 67.056137 144.252228 L 79.232338 134.102615 L 83.71743 123.221329 L 92.687607 119.597473 L 97.813538 112.348877 L 109.34449 110.16272 L 115.116585 101.468475 C 109.348892 101.468475 103.581215 101.468475 97.813538 101.468475 L 108.707161 96.389252 L 116.390335 96.389252 L 127.288368 92.756592 L 128.570953 88.417816 L 124.723198 84.785156 L 120.238106 83.330658 L 121.520691 78.983093 L 118.318192 72.458221 L 110.62619 75.350433 L 111.908775 69.552765 L 102.938606 64.473572 L 95.892754 76.796112 L 96.530083 81.151581 L 89.484222 84.061462 L 84.99472 93.487366 L 83.074814 84.784271 L 70.898605 79.705048 L 68.974289 73.180176 L 84.99472 63.745422 L 92.044983 57.220551 L 92.686722 49.24472 L 88.843376 47.066528 L 83.71743 46.339264 L 80.514931 54.319519 C 80.514931 54.319519 75.156273 55.369385 73.778481 55.709656 C 56.182804 71.924042 20.630018 106.925873 12.37033 173.004211 C 12.697372 174.53627 18.357502 183.420059 18.357502 183.420059 L 31.812767 191.391479 L 45.268024 195.02417 L 51.040104 202.280701 L 60.005878 208.805573 L 65.131821 208.082764 L 68.975174 209.813141 L 68.975174 210.98378 L 63.852764 224.761673 L 60.004997 230.563705 L 61.287582 233.473557 L 58.085083 244.337204 L 69.620438 265.376038 L 81.151375 275.53363 L 86.281723 282.782196 L 85.636467 298.018982 L 89.484222 306.713226 L 85.636467 323.396576 C 85.636467 323.396576 85.334984 323.293427 85.825981 324.963013 C 86.321388 326.633453 106.357079 337.755371 107.630829 336.808655 C 108.900223 335.844299 109.985352 335.000671 109.985352 335.000671 L 108.707161 331.384766 L 113.829582 326.305542 L 115.753891 321.226318 L 124.086739 318.316498 L 130.49176 302.356873 L 128.571838 298.018127 L 133.048096 291.493225 L 142.663544 289.307098 L 147.793884 277.702972 L 146.511292 263.206665 L 154.198883 252.325378 L 155.481476 241.444107 C 144.961624 236.227371 134.528137 230.855484 124.086739 225.484512"/>
                </g>
            </g>
            <g id="g3266">
                <g id="g3270">
                    <radialGradient id="radialGradient9" cx="132.504332" cy="125.197687" r="371.915407" fx="132.504332" fy="125.197687" gradientUnits="userSpaceOnUse">
                        <stop offset="1e-05" stop-color="#ffffff" stop-opacity="1"/>
                        <stop offset="0.37931" stop-color="#fefefe" stop-opacity="1"/>
                        <stop offset="1" stop-color="#1d1d1d" stop-opacity="1"/>
                    </radialGradient>
                    <path id="path3272" fill="url(#radialGradient9)" stroke="none" d="M 109.987984 60.845276 L 116.39299 65.197266 L 121.523331 65.197266 L 121.523331 60.122437 L 115.118347 57.221436 L 109.987984 60.845276"/>
                </g>
            </g>
            <g id="g3274">
                <g id="g3278">
                    <radialGradient id="radialGradient10" cx="132.504332" cy="125.197687" r="371.915407" fx="132.504332" fy="125.197687" gradientUnits="userSpaceOnUse">
                        <stop offset="1e-05" stop-color="#ffffff" stop-opacity="1"/>
                        <stop offset="0.37931" stop-color="#fefefe" stop-opacity="1"/>
                        <stop offset="1" stop-color="#1d1d1d" stop-opacity="1"/>
                    </radialGradient>
                    <path id="path3280" fill="url(#radialGradient10)" stroke="none" d="M 93.331108 55.047668 L 90.124199 63.023468 L 96.5336 63.023468 L 99.740509 55.770477 C 102.504021 53.816193 105.254311 51.849548 108.068939 49.968414 L 114.478363 52.146637 C 118.74836 55.047668 123.018349 57.948669 127.291893 60.845276 L 133.704834 55.047668 L 126.650146 52.146637 L 123.443245 45.61734 L 111.270569 44.166382 L 110.628845 40.538086 L 104.86116 41.992615 L 102.301277 47.068268 L 99.094368 40.538971 L 97.816193 43.440033 L 98.457924 50.693054 L 93.331108 55.047668"/>
                </g>
            </g>
            <g id="g3282">
                <g id="g3284" opacity="0.75"/>
                <g id="g3288"/>
            </g>
            <g id="g3292">
                <g id="g3294" opacity="0.75"/>
                <g id="g3298"/>
            </g>
            <g id="g3302">
                <g id="g3306">
                    <radialGradient id="radialGradient11" cx="132.504332" cy="125.197687" r="371.915407" fx="132.504332" fy="125.197687" gradientUnits="userSpaceOnUse">
                        <stop offset="1e-05" stop-color="#ffffff" stop-opacity="1"/>
                        <stop offset="0.37931" stop-color="#fefefe" stop-opacity="1"/>
                        <stop offset="1" stop-color="#1d1d1d" stop-opacity="1"/>
                    </radialGradient>
                    <path id="path3308" fill="url(#radialGradient11)" stroke="none" d="M 116.39299 36.909851 L 119.599907 34.013214 L 126.009293 32.562286 C 130.3992 30.427277 134.806702 28.989532 139.464569 27.483032 L 136.908203 23.131042 L 128.6353 24.319305 L 124.7267 28.214691 L 118.282936 29.149078 L 112.554031 31.839447 L 109.769379 33.18634 L 108.068939 35.463318 L 116.39299 36.909851"/>
                </g>
            </g>
            <g id="g3310">
                <g id="g3314">
                    <radialGradient id="radialGradient12" cx="132.504332" cy="125.197687" r="371.915407" fx="132.504332" fy="125.197687" gradientUnits="userSpaceOnUse">
                        <stop offset="1e-05" stop-color="#ffffff" stop-opacity="1"/>
                        <stop offset="0.37931" stop-color="#fefefe" stop-opacity="1"/>
                        <stop offset="1" stop-color="#1d1d1d" stop-opacity="1"/>
                    </radialGradient>
                    <path id="path3316" fill="url(#radialGradient12)" stroke="none" d="M 127.291016 105.816071 L 131.138779 100.013977 L 125.366684 95.666412 L 127.291016 105.816071"/>
                </g>
            </g>
        </g>
        <radialGradient id="radialGradient13" cx="102.917265" cy="85.210027" r="390.570469" fx="102.917265" fy="85.210027" gradientUnits="userSpaceOnUse">
            <stop offset="1e-05" stop-color="#ffffff" stop-opacity="1"/>
            <stop offset="1" stop-color="#ffffff" stop-opacity="0.164948"/>
        </radialGradient>
        <path id="path4122" fill="none" stroke="url(#radialGradient13)" stroke-width="8.97322" d="M 348.550049 186.994141 C 348.550049 278.214294 274.600128 352.163361 183.392548 352.163361 C 92.176598 352.163361 18.230877 278.21344 18.230877 186.994141 C 18.230877 95.778168 92.176598 21.836639 183.392548 21.836639 C 274.600128 21.836639 348.550049 95.778168 348.550049 186.994141 L 348.550049 186.994141 Z"/>
    </g>
    <path id="InterWeb-copy" fill="#39396c" fill-rule="evenodd" stroke="none" d="M 1506.596802 254.752487 C 1506.596802 270.599609 1505.96228 287.714447 1505.329102 298.173615 L 1538.608398 298.173615 L 1540.509277 275.036804 L 1541.143799 275.036804 C 1552.235962 294.053375 1569.985352 301.660004 1589.952881 301.660004 C 1624.815796 301.660004 1659.997192 274.085999 1659.997192 218.621063 C 1660.314453 171.713547 1633.373901 140.336212 1595.656982 140.336212 C 1572.520752 140.336212 1555.723145 150.161514 1546.2146 165.057693 L 1545.5802 165.057693 L 1545.5802 73.144409 L 1506.596802 73.144409 Z M 1545.5802 209.429779 C 1545.5802 205.626465 1546.2146 202.140076 1546.8479 199.287552 C 1550.968262 182.172699 1565.547729 170.762756 1581.394775 170.762756 C 1607.38501 170.762756 1620.379395 192.948624 1620.379395 220.205704 C 1620.379395 251.583038 1605.482788 270.916534 1581.078857 270.916534 C 1564.280029 270.916534 1550.652344 259.506592 1546.53186 243.65947 C 1545.897461 240.807098 1545.5802 237.637634 1545.5802 234.468185 Z M 1473.952148 231.932587 C 1474.585327 228.446198 1475.219849 222.741302 1475.219849 215.451599 C 1475.219849 181.538849 1458.738159 140.336212 1408.661377 140.336212 C 1359.219116 140.336212 1333.228882 180.587891 1333.228882 223.375168 C 1333.228882 270.599609 1362.704956 301.343079 1412.78186 301.343079 C 1434.967529 301.343079 1453.350098 297.222839 1466.661743 291.517761 L 1460.956421 264.894714 C 1448.913696 269.014954 1436.235229 271.86734 1418.169922 271.86734 C 1393.13147 271.86734 1371.578979 259.823517 1370.62854 231.932587 Z M 1370.62854 204.675507 C 1372.213501 188.828384 1382.355225 166.959442 1406.443237 166.959442 C 1432.432129 166.959442 1438.77063 190.413193 1438.454712 204.675507 Z M 1157.960083 298.173615 L 1182.681274 197.702896 C 1189.019775 173.298187 1193.140259 152.69696 1196.627441 129.877213 L 1197.26062 129.877213 C 1200.113281 153.013885 1203.916504 173.298187 1209.304565 197.702896 L 1231.490356 298.173615 L 1273.010376 298.173615 L 1330.693481 84.554352 L 1291.075684 84.554352 L 1268.890015 180.904816 C 1263.18457 207.211105 1258.113647 231.615662 1254.310547 255.069412 L 1253.676025 255.069412 C 1250.507446 231.932587 1245.752441 208.161896 1240.681641 182.806564 L 1219.446411 84.554352 L 1178.560791 84.554352 L 1155.424683 181.221756 C 1149.401978 208.161896 1143.380615 233.517395 1139.894775 256.020203 L 1139.260254 256.020203 C 1135.774414 234.78511 1130.703491 207.52803 1125.315308 181.538849 L 1105.030518 84.554352 L 1063.510498 84.554352 L 1115.806885 298.173615 Z M 966.844116 298.173615 L 1005.827393 298.173615 L 1005.827393 217.987198 C 1005.827393 213.866959 1006.144653 209.746704 1006.777893 206.260315 C 1010.265076 188.511459 1023.259521 176.784576 1041.64209 176.784576 C 1046.395752 176.784576 1049.882935 177.101501 1053.368774 177.735519 L 1053.368774 141.287003 C 1050.200195 140.653152 1047.980713 140.336212 1044.17749 140.336212 C 1027.379883 140.336212 1009.313293 151.429245 1001.707031 172.981262 L 1000.756531 172.981262 L 999.17157 143.822601 L 965.576355 143.822601 C 966.526855 157.451065 966.844116 172.664322 966.844116 193.582657 Z M 934.19812 231.932587 C 934.832581 228.446198 935.46582 222.741302 935.46582 215.451599 C 935.46582 181.538849 918.985474 140.336212 868.90863 140.336212 C 819.465088 140.336212 793.476196 180.587891 793.476196 223.375168 C 793.476196 270.599609 822.952271 301.343079 873.029053 301.343079 C 895.214783 301.343079 913.597351 297.222839 926.909058 291.517761 L 921.203674 264.894714 C 909.159668 269.014954 896.482483 271.86734 878.417175 271.86734 C 853.378784 271.86734 831.826294 259.823517 830.875793 231.932587 Z M 830.875793 204.675507 C 832.459473 188.828384 842.602539 166.959442 866.689209 166.959442 C 892.679321 166.959442 899.017944 190.413193 898.700684 204.675507 Z M 700.294373 114.980896 L 700.294373 143.822601 L 678.425903 143.822601 L 678.425903 172.981262 L 700.294373 172.981262 L 700.294373 245.561203 C 700.294373 265.84552 704.098816 280.107819 712.655579 288.98233 C 719.945923 296.905884 731.672668 301.660004 746.252075 301.660004 C 758.296021 301.660004 768.755005 299.75827 774.459106 297.539764 L 773.825928 268.064026 C 769.388245 269.331909 765.585083 269.648804 758.612 269.648804 C 743.716614 269.648804 738.64447 260.140442 738.64447 241.124023 L 738.64447 172.981262 L 775.726807 172.981262 L 775.726807 143.822601 L 738.64447 143.822601 L 738.64447 104.204803 Z M 514.249268 298.173615 L 553.233887 298.173615 L 553.233887 207.211105 C 553.233887 202.773926 553.867065 198.019821 555.134766 194.850372 C 559.255188 183.123489 570.031433 172.030472 585.56134 172.030472 C 606.79657 172.030472 615.037415 188.828384 615.037415 211.01442 L 615.037415 298.173615 L 654.021973 298.173615 L 654.021973 206.577255 C 654.021973 157.768158 626.13092 140.336212 599.190247 140.336212 C 573.517334 140.336212 556.719788 154.915619 549.746643 166.959442 L 548.796204 166.959442 L 546.895264 143.822601 L 512.981567 143.822601 C 513.616028 157.13414 514.249268 172.030472 514.249268 189.779327 Z M 430.26001 84.554352 L 430.26001 298.173615 L 469.243317 298.173615 L 469.243317 84.554352 Z"/>
</svg>
